<?xml version="1.0" encoding="UTF-8"?>
<svg xmlns="http://www.w3.org/2000/svg" xmlns:xlink="http://www.w3.org/1999/xlink" width="32pt" height="32pt" viewBox="0 0 32 32" version="1.1">
<g id="surface1216718">
<path style=" stroke:none;fill-rule:nonzero;fill:rgb(18.039216%,80%,44.313725%);fill-opacity:1;" d="M 15.996094 3 C 15.628906 3 15.265625 3.089844 14.949219 3.269531 L 5.039062 8.992188 C 4.398438 9.359375 4 10.0625 4 10.800781 L 4 21.179688 C 4 21.929688 4.398438 22.621094 5.039062 22.992188 L 7.640625 24.492188 C 8.902344 25.109375 9.351562 25.109375 9.917969 25.109375 C 11.789062 25.109375 12.859375 23.980469 12.859375 22.019531 L 12.859375 11.3125 C 12.859375 11.152344 12.730469 11.019531 12.570312 11.019531 L 11.320312 11.019531 C 11.148438 11.019531 11.027344 11.152344 11.027344 11.3125 L 11.027344 22.007812 C 11.027344 22.890625 10.121094 23.75 8.652344 23.019531 L 5.929688 21.449219 C 5.828125 21.398438 5.769531 21.289062 5.769531 21.179688 L 5.769531 10.8125 C 5.769531 10.691406 5.828125 10.589844 5.929688 10.527344 L 15.839844 4.8125 C 15.929688 4.75 16.050781 4.75 16.152344 4.8125 L 26.0625 10.527344 C 26.160156 10.589844 26.222656 10.691406 26.222656 10.800781 L 26.222656 21.179688 C 26.222656 21.289062 26.160156 21.398438 26.070312 21.449219 L 16.152344 27.179688 C 16.058594 27.230469 15.929688 27.230469 15.839844 27.179688 L 13.289062 25.671875 C 13.21875 25.621094 13.121094 25.609375 13.050781 25.652344 C 12.339844 26.050781 12.210938 26.101562 11.550781 26.332031 C 11.390625 26.378906 11.140625 26.480469 11.640625 26.761719 L 14.949219 28.722656 C 15.269531 28.902344 15.628906 29 15.992188 29 C 16.359375 29 16.71875 28.902344 17.039062 28.722656 L 26.960938 22.992188 C 27.601562 22.621094 28 21.929688 28 21.179688 L 28 10.8125 C 28 10.0625 27.601562 9.371094 26.960938 9 L 17.039062 3.269531 C 16.722656 3.089844 16.359375 3 15.996094 3 Z M 18.660156 11.003906 C 15.832031 11.003906 14.140625 12.203125 14.140625 14.203125 C 14.140625 16.375 15.820312 16.972656 18.539062 17.242188 C 21.789062 17.5625 22.039062 18.046875 22.039062 18.683594 C 22.039062 19.785156 21.152344 20.253906 19.0625 20.253906 C 16.429688 20.253906 15.851562 19.59375 15.660156 18.292969 C 15.640625 18.15625 15.519531 18.054688 15.382812 18.054688 L 14.089844 18.054688 C 13.929688 18.054688 13.8125 18.1875 13.8125 18.335938 C 13.8125 20.007812 14.71875 21.992188 19.0625 21.992188 C 22.199219 21.992188 24 20.753906 24 18.59375 C 24 16.457031 22.550781 15.882812 19.507812 15.472656 C 16.417969 15.074219 16.109375 14.863281 16.109375 14.144531 C 16.109375 13.542969 16.378906 12.753906 18.660156 12.753906 C 20.691406 12.753906 21.449219 13.195312 21.757812 14.5625 C 21.789062 14.695312 21.898438 14.792969 22.039062 14.792969 L 23.332031 14.792969 C 23.410156 14.792969 23.480469 14.753906 23.539062 14.695312 C 23.589844 14.644531 23.621094 14.566406 23.609375 14.472656 C 23.410156 12.113281 21.839844 11.003906 18.660156 11.003906 Z M 18.660156 11.003906 "/>
</g>
</svg>
